<svg width="118" height="42" viewBox="0 0 118 42" fill="none" xmlns="http://www.w3.org/2000/svg">
<path d="M13.86 15.95C14.38 15.95 14.81 16.13 15.15 16.49C15.49 16.83 15.66 17.26 15.66 17.78V25.4C15.66 27.56 15.06 29.25 13.86 30.47C12.68 31.69 10.99 32.3 8.79 32.3C6.59 32.3 4.9 31.69 3.72 30.47C2.54 29.25 1.95 27.56 1.95 25.4V17.78C1.95 17.26 2.12 16.83 2.46 16.49C2.8 16.13 3.23 15.95 3.75 15.95C4.27 15.95 4.7 16.13 5.04 16.49C5.38 16.83 5.55 17.26 5.55 17.78V25.4C5.55 26.62 5.82 27.53 6.36 28.13C6.9 28.71 7.71 29 8.79 29C9.89 29 10.71 28.71 11.25 28.13C11.79 27.53 12.06 26.62 12.06 25.4V17.78C12.06 17.26 12.23 16.83 12.57 16.49C12.91 16.13 13.34 15.95 13.86 15.95ZM28.1374 15.65C30.1774 15.65 31.5874 16.26 32.3674 17.48C33.1474 18.68 33.5374 20.35 33.5374 22.49V30.17C33.5374 30.69 33.3674 31.13 33.0274 31.49C32.6874 31.83 32.2574 32 31.7374 32C31.2174 32 30.7874 31.83 30.4474 31.49C30.1074 31.13 29.9374 30.69 29.9374 30.17V22.49C29.9374 21.39 29.7074 20.53 29.2474 19.91C28.7874 19.27 27.9974 18.95 26.8774 18.95C25.7174 18.95 24.8074 19.29 24.1474 19.97C23.4874 20.63 23.1574 21.47 23.1574 22.49V30.17C23.1574 30.69 22.9874 31.13 22.6474 31.49C22.3074 31.83 21.8774 32 21.3574 32C20.8374 32 20.4074 31.83 20.0674 31.49C19.7274 31.13 19.5574 30.69 19.5574 30.17V17.78C19.5574 17.26 19.7274 16.83 20.0674 16.49C20.4074 16.13 20.8374 15.95 21.3574 15.95C21.8774 15.95 22.3074 16.13 22.6474 16.49C22.9874 16.83 23.1574 17.26 23.1574 17.78V18.29C23.6974 17.57 24.3974 16.95 25.2574 16.43C26.1374 15.91 27.0974 15.65 28.1374 15.65ZM45.7385 15.65C47.1185 15.65 48.3685 16.01 49.4885 16.73C50.6085 17.43 51.4885 18.41 52.1285 19.67C52.7885 20.93 53.1185 22.36 53.1185 23.96C53.1185 25.56 52.7985 27 52.1585 28.28C51.5185 29.54 50.6385 30.53 49.5185 31.25C48.4185 31.95 47.1985 32.3 45.8585 32.3C44.8985 32.3 43.9885 32.11 43.1285 31.73C42.2885 31.33 41.5885 30.85 41.0285 30.29V30.47C41.0285 30.99 40.8585 31.43 40.5185 31.79C40.1785 32.13 39.7485 32.3 39.2285 32.3C38.7085 32.3 38.2785 32.13 37.9385 31.79C37.5985 31.45 37.4285 31.01 37.4285 30.47V11.63C37.4285 11.11 37.5985 10.68 37.9385 10.34C38.2785 9.98 38.7085 9.8 39.2285 9.8C39.7485 9.8 40.1785 9.98 40.5185 10.34C40.8585 10.68 41.0285 11.11 41.0285 11.63V17.9C41.5085 17.3 42.1785 16.78 43.0385 16.34C43.8985 15.88 44.7985 15.65 45.7385 15.65ZM45.2885 29C46.5685 29 47.6185 28.52 48.4385 27.56C49.2585 26.6 49.6685 25.4 49.6685 23.96C49.6685 22.52 49.2585 21.33 48.4385 20.39C47.6385 19.43 46.5885 18.95 45.2885 18.95C43.9885 18.95 42.9285 19.43 42.1085 20.39C41.2885 21.33 40.8785 22.52 40.8785 23.96C40.8785 25.4 41.2885 26.6 42.1085 27.56C42.9285 28.52 43.9885 29 45.2885 29ZM71.5399 23.99C71.5399 25.59 71.1799 27.03 70.4599 28.31C69.7399 29.57 68.7499 30.55 67.4899 31.25C66.2499 31.95 64.8799 32.3 63.3799 32.3C61.8599 32.3 60.4799 31.95 59.2399 31.25C57.9999 30.55 57.0199 29.57 56.2999 28.31C55.5799 27.03 55.2199 25.59 55.2199 23.99C55.2199 22.39 55.5799 20.96 56.2999 19.7C57.0199 18.42 57.9999 17.43 59.2399 16.73C60.4799 16.01 61.8599 15.65 63.3799 15.65C64.8799 15.65 66.2499 16.01 67.4899 16.73C68.7499 17.43 69.7399 18.42 70.4599 19.7C71.1799 20.96 71.5399 22.39 71.5399 23.99ZM67.9399 23.99C67.9399 23.01 67.7299 22.14 67.3099 21.38C66.9099 20.6 66.3599 20 65.6599 19.58C64.9799 19.16 64.2199 18.95 63.3799 18.95C62.5399 18.95 61.7699 19.16 61.0699 19.58C60.3899 20 59.8399 20.6 59.4199 21.38C59.0199 22.14 58.8199 23.01 58.8199 23.99C58.8199 24.97 59.0199 25.84 59.4199 26.6C59.8399 27.36 60.3899 27.95 61.0699 28.37C61.7699 28.79 62.5399 29 63.3799 29C64.2199 29 64.9799 28.79 65.6599 28.37C66.3599 27.95 66.9099 27.36 67.3099 26.6C67.7299 25.84 67.9399 24.97 67.9399 23.99ZM86.3677 29.15C86.6277 29.47 86.7577 29.83 86.7577 30.23C86.7577 30.73 86.5677 31.16 86.1877 31.52C85.8077 31.88 85.3877 32.06 84.9277 32.06C84.3477 32.06 83.8577 31.8 83.4577 31.28L79.8577 26.81L76.3477 31.28C76.1677 31.52 75.9477 31.71 75.6877 31.85C75.4477 31.97 75.1877 32.03 74.9077 32.03C74.4877 32.03 74.0877 31.87 73.7077 31.55C73.3277 31.23 73.1377 30.86 73.1377 30.44C73.1377 30.04 73.2877 29.66 73.5877 29.3L77.7577 24.2L73.4377 18.83C73.1777 18.51 73.0477 18.15 73.0477 17.75C73.0477 17.25 73.2277 16.83 73.5877 16.49C73.9677 16.13 74.3977 15.95 74.8777 15.95C75.4577 15.95 75.9477 16.2 76.3477 16.7L80.0377 21.29L83.4577 16.76C83.8377 16.22 84.3177 15.95 84.8977 15.95C85.3777 15.95 85.7777 16.12 86.0977 16.46C86.4377 16.78 86.6077 17.15 86.6077 17.57C86.6077 18.01 86.4677 18.4 86.1877 18.74L82.0477 23.78L86.3677 29.15Z" fill="#3F3D56"/>
<path d="M93.7268 14.03C93.7268 14.49 93.5568 15.07 93.2168 15.77C92.8768 16.47 92.4368 17.08 91.8968 17.6C91.3568 18.12 90.7968 18.38 90.2168 18.38C89.7768 18.38 89.4268 18.29 89.1668 18.11C88.9068 17.91 88.7768 17.6 88.7768 17.18C88.7768 16.86 88.8568 16.64 89.0168 16.52C89.1768 16.38 89.3468 16.28 89.5268 16.22C89.7268 16.16 89.8668 16.11 89.9468 16.07C90.5068 15.77 90.7868 15.37 90.7868 14.87C90.7868 14.65 90.6768 14.46 90.4568 14.3C90.2568 14.12 89.9868 14.03 89.6468 14.03C89.3068 14.03 89.0268 14.1 88.8068 14.24C88.5668 14.14 88.3768 14.01 88.2368 13.85C88.1168 13.69 88.0568 13.45 88.0568 13.13C88.0568 12.73 88.2068 12.36 88.5068 12.02C88.8068 11.66 89.1768 11.38 89.6168 11.18C90.0568 10.96 90.4868 10.85 90.9068 10.85C91.7868 10.85 92.4768 11.13 92.9768 11.69C93.4768 12.23 93.7268 13.01 93.7268 14.03Z" fill="#FF6584"/>
<path d="M110.419 9.8C110.939 9.8 111.369 9.97 111.709 10.31C112.049 10.65 112.219 11.09 112.219 11.63V30.17C112.219 30.69 112.049 31.13 111.709 31.49C111.369 31.83 110.939 32 110.419 32C109.899 32 109.469 31.83 109.129 31.49C108.809 31.15 108.639 30.72 108.619 30.2C108.119 30.78 107.439 31.28 106.579 31.7C105.739 32.1 104.849 32.3 103.909 32.3C102.529 32.3 101.279 31.95 100.159 31.25C99.0385 30.53 98.1485 29.54 97.4885 28.28C96.8485 27.02 96.5285 25.59 96.5285 23.99C96.5285 22.39 96.8485 20.96 97.4885 19.7C98.1285 18.42 98.9985 17.43 100.099 16.73C101.219 16.01 102.449 15.65 103.789 15.65C104.749 15.65 105.649 15.83 106.489 16.19C107.329 16.53 108.039 16.97 108.619 17.51V11.63C108.619 11.11 108.789 10.68 109.129 10.34C109.469 9.98 109.899 9.8 110.419 9.8ZM104.359 29C105.659 29 106.719 28.53 107.539 27.59C108.359 26.63 108.769 25.43 108.769 23.99C108.769 22.55 108.359 21.35 107.539 20.39C106.719 19.43 105.659 18.95 104.359 18.95C103.079 18.95 102.029 19.43 101.209 20.39C100.389 21.35 99.9785 22.55 99.9785 23.99C99.9785 25.43 100.379 26.63 101.179 27.59C101.999 28.53 103.059 29 104.359 29Z" fill="white"/>
<path d="M110.996 11.8975C111.493 12.0506 111.854 12.3396 112.079 12.7647C112.303 13.1897 112.336 13.6602 112.177 14.1763L106.72 31.8949C106.567 32.3918 106.275 32.7623 105.844 33.0063C105.419 33.2311 104.958 33.267 104.461 33.114C103.964 32.9609 103.603 32.6718 103.378 32.2468C103.173 31.8277 103.137 31.3667 103.271 30.8639C102.622 31.271 101.825 31.5487 100.88 31.6969C99.959 31.8319 99.0495 31.7611 98.1512 31.4844C96.8323 31.0782 95.7407 30.3757 94.8764 29.377C94.018 28.3593 93.4588 27.1511 93.199 25.7527C92.9582 24.3601 93.0733 22.8993 93.5443 21.3702C94.0153 19.8411 94.742 18.5686 95.7246 17.5528C96.713 16.5179 97.8359 15.8279 99.0932 15.4827C100.375 15.1243 101.657 15.1423 102.938 15.5367C103.855 15.8193 104.662 16.2563 105.359 16.8476C106.062 17.4198 106.611 18.0493 107.006 18.7361L108.737 13.1166C108.89 12.6196 109.179 12.2587 109.604 12.0339C110.035 11.7899 110.499 11.7445 110.996 11.8975ZM99.5526 28.4631C100.795 28.8457 101.946 28.7086 103.007 28.0516C104.073 27.3755 104.818 26.3493 105.242 24.9731C105.666 23.5969 105.627 22.3294 105.126 21.1706C104.625 20.0117 103.753 19.241 102.511 18.8583C101.288 18.4815 100.143 18.6312 99.0766 19.3073C98.0104 19.9834 97.2653 21.0095 96.8414 22.3857C96.4176 23.7619 96.4466 25.0265 96.9286 26.1795C97.4355 27.3192 98.3102 28.0804 99.5526 28.4631Z" fill="#3F3D56"/>
</svg>
