<svg width="363" height="35" viewBox="0 0 363 35" fill="none" xmlns="http://www.w3.org/2000/svg">
<path d="M10.8934 11C11.2534 11 11.5467 11.1067 11.7734 11.32C12 11.5333 12.1134 11.8133 12.1134 12.16C12.1134 12.5067 12 12.7867 11.7734 13C11.5467 13.2 11.2534 13.3 10.8934 13.3H7.75336V23.78C7.75336 24.1267 7.62669 24.42 7.37336 24.66C7.12003 24.8867 6.80669 25 6.43336 25C6.06003 25 5.75336 24.8867 5.51336 24.66C5.27336 24.42 5.15336 24.1267 5.15336 23.78V13.3H2.01336C1.65336 13.3 1.36003 13.1933 1.13336 12.98C0.906693 12.7667 0.793359 12.4867 0.793359 12.14C0.793359 11.8067 0.906693 11.5333 1.13336 11.32C1.37336 11.1067 1.66669 11 2.01336 11H10.8934ZM22.2105 19.4C22.1972 19.72 22.0705 19.98 21.8305 20.18C21.5905 20.38 21.3105 20.48 20.9905 20.48H14.3905C14.5505 21.2667 14.9172 21.8867 15.4905 22.34C16.0639 22.78 16.7105 23 17.4305 23C17.9772 23 18.4039 22.9533 18.7105 22.86C19.0172 22.7533 19.2572 22.6467 19.4305 22.54C19.6172 22.42 19.7439 22.34 19.8105 22.3C20.0505 22.18 20.2772 22.12 20.4905 22.12C20.7705 22.12 21.0105 22.22 21.2105 22.42C21.4105 22.62 21.5105 22.8533 21.5105 23.12C21.5105 23.48 21.3239 23.8067 20.9505 24.1C20.5772 24.4067 20.0772 24.6667 19.4505 24.88C18.8239 25.0933 18.1905 25.2 17.5505 25.2C16.4305 25.2 15.4505 24.9667 14.6105 24.5C13.7839 24.0333 13.1439 23.3933 12.6905 22.58C12.2372 21.7533 12.0105 20.8267 12.0105 19.8C12.0105 18.6533 12.2505 17.6467 12.7305 16.78C13.2105 15.9133 13.8439 15.2533 14.6305 14.8C15.4172 14.3333 16.2572 14.1 17.1505 14.1C18.0305 14.1 18.8572 14.34 19.6305 14.82C20.4172 15.3 21.0439 15.9467 21.5105 16.76C21.9772 17.5733 22.2105 18.4533 22.2105 19.4ZM17.1505 16.3C15.6039 16.3 14.6905 17.0267 14.4105 18.48H19.6505V18.34C19.5972 17.78 19.3239 17.3 18.8305 16.9C18.3372 16.5 17.7772 16.3 17.1505 16.3ZM27.8121 23.78C27.8121 24.1267 27.6921 24.42 27.4521 24.66C27.2254 24.8867 26.9388 25 26.5921 25C26.2588 25 25.9788 24.8867 25.7521 24.66C25.5254 24.42 25.4121 24.1267 25.4121 23.78V11.42C25.4121 11.0733 25.5254 10.7867 25.7521 10.56C25.9921 10.32 26.2854 10.2 26.6321 10.2C26.9654 10.2 27.2454 10.32 27.4721 10.56C27.6988 10.7867 27.8121 11.0733 27.8121 11.42V23.78ZM34.2027 23.78C34.2027 24.1267 34.0827 24.42 33.8427 24.66C33.6161 24.8867 33.3294 25 32.9827 25C32.6494 25 32.3694 24.8867 32.1427 24.66C31.9161 24.42 31.8027 24.1267 31.8027 23.78V11.42C31.8027 11.0733 31.9161 10.7867 32.1427 10.56C32.3827 10.32 32.6761 10.2 33.0227 10.2C33.3561 10.2 33.6361 10.32 33.8627 10.56C34.0894 10.7867 34.2027 11.0733 34.2027 11.42V23.78ZM53.2588 14.1C53.6055 14.1 53.8922 14.2133 54.1188 14.44C54.3455 14.6667 54.4588 14.96 54.4588 15.32V23.78C54.4588 24.1267 54.3455 24.42 54.1188 24.66C53.8922 24.8867 53.6055 25 53.2588 25C52.9122 25 52.6255 24.8867 52.3988 24.66C52.1855 24.4333 52.0722 24.1467 52.0588 23.8C51.7255 24.1867 51.2722 24.52 50.6988 24.8C50.1388 25.0667 49.5455 25.2 48.9188 25.2C47.9988 25.2 47.1655 24.9667 46.4188 24.5C45.6722 24.02 45.0788 23.36 44.6388 22.52C44.2122 21.68 43.9988 20.7267 43.9988 19.66C43.9988 18.5933 44.2122 17.64 44.6388 16.8C45.0655 15.9467 45.6455 15.2867 46.3788 14.82C47.1255 14.34 47.9455 14.1 48.8388 14.1C49.4788 14.1 50.0788 14.22 50.6388 14.46C51.1988 14.6867 51.6722 14.98 52.0588 15.34V15.32C52.0588 14.9733 52.1722 14.6867 52.3988 14.46C52.6255 14.22 52.9122 14.1 53.2588 14.1ZM49.2188 23C50.0855 23 50.7922 22.6867 51.3388 22.06C51.8855 21.42 52.1588 20.62 52.1588 19.66C52.1588 18.7 51.8855 17.9 51.3388 17.26C50.7922 16.62 50.0855 16.3 49.2188 16.3C48.3655 16.3 47.6655 16.62 47.1188 17.26C46.5722 17.9 46.2988 18.7 46.2988 19.66C46.2988 20.62 46.5655 21.42 47.0988 22.06C47.6455 22.6867 48.3522 23 49.2188 23ZM69.8052 12.32C69.3519 12.32 69.0319 12.4533 68.8452 12.72C68.6586 12.9733 68.5652 13.2533 68.5652 13.56V14.5H70.3852C70.7052 14.5 70.9719 14.6067 71.1852 14.82C71.3986 15.02 71.5052 15.28 71.5052 15.6C71.5052 15.92 71.3986 16.1867 71.1852 16.4C70.9719 16.6 70.7052 16.7 70.3852 16.7H68.5652V23.78C68.5652 24.1267 68.4519 24.42 68.2252 24.66C67.9986 24.8867 67.7119 25 67.3652 25C67.0186 25 66.7319 24.8867 66.5052 24.66C66.2786 24.42 66.1652 24.1267 66.1652 23.78V16.7H65.0852C64.7652 16.7 64.4986 16.6 64.2852 16.4C64.0719 16.1867 63.9652 15.92 63.9652 15.6C63.9652 15.28 64.0719 15.02 64.2852 14.82C64.4986 14.6067 64.7652 14.5 65.0852 14.5H66.1652V13.58C66.1652 12.58 66.5052 11.7667 67.1852 11.14C67.8786 10.5133 68.8719 10.2 70.1652 10.2C70.6586 10.2 71.0852 10.3 71.4452 10.5C71.8186 10.7 72.0052 11.0067 72.0052 11.42C72.0052 11.74 71.9119 12 71.7252 12.2C71.5386 12.4 71.3119 12.5 71.0452 12.5C70.9786 12.5 70.9052 12.4933 70.8252 12.48C70.7586 12.4667 70.6852 12.4533 70.6052 12.44C70.2852 12.36 70.0186 12.32 69.8052 12.32ZM79.5651 14.1C79.9651 14.1 80.2984 14.2133 80.5651 14.44C80.8451 14.6667 80.9851 14.9333 80.9851 15.24C80.9851 15.6533 80.8784 15.9667 80.6651 16.18C80.4517 16.38 80.1984 16.48 79.9051 16.48C79.7051 16.48 79.4784 16.4333 79.2251 16.34C79.1851 16.3267 79.0917 16.3 78.9451 16.26C78.8117 16.22 78.6651 16.2 78.5051 16.2C78.1584 16.2 77.8251 16.3067 77.5051 16.52C77.1851 16.7333 76.9184 17.06 76.7051 17.5C76.5051 17.9267 76.4051 18.44 76.4051 19.04V23.78C76.4051 24.1267 76.2917 24.42 76.0651 24.66C75.8384 24.8867 75.5517 25 75.2051 25C74.8584 25 74.5717 24.8867 74.3451 24.66C74.1184 24.42 74.0051 24.1267 74.0051 23.78V15.52C74.0051 15.1733 74.1184 14.8867 74.3451 14.66C74.5717 14.42 74.8584 14.3 75.2051 14.3C75.5517 14.3 75.8384 14.42 76.0651 14.66C76.2917 14.8867 76.4051 15.1733 76.4051 15.52V15.78C76.7117 15.2333 77.1517 14.82 77.7251 14.54C78.2984 14.2467 78.9117 14.1 79.5651 14.1ZM85.937 23.78C85.937 24.1267 85.8236 24.42 85.597 24.66C85.3703 24.8867 85.0836 25 84.737 25C84.3903 25 84.1036 24.8867 83.877 24.66C83.6503 24.42 83.537 24.1267 83.537 23.78V15.52C83.537 15.1733 83.6503 14.8867 83.877 14.66C84.1036 14.42 84.3903 14.3 84.737 14.3C85.0836 14.3 85.3703 14.42 85.597 14.66C85.8236 14.8867 85.937 15.1733 85.937 15.52V23.78ZM84.717 13C84.2636 13 83.9436 12.9267 83.757 12.78C83.5703 12.6333 83.477 12.3733 83.477 12V11.62C83.477 11.2467 83.577 10.9867 83.777 10.84C83.977 10.6933 84.297 10.62 84.737 10.62C85.2036 10.62 85.5303 10.6933 85.717 10.84C85.9036 10.9867 85.997 11.2467 85.997 11.62V12C85.997 12.3867 85.897 12.6533 85.697 12.8C85.5103 12.9333 85.1836 13 84.717 13ZM99.0035 19.4C98.9902 19.72 98.8635 19.98 98.6235 20.18C98.3835 20.38 98.1035 20.48 97.7835 20.48H91.1835C91.3435 21.2667 91.7102 21.8867 92.2835 22.34C92.8568 22.78 93.5035 23 94.2235 23C94.7702 23 95.1968 22.9533 95.5035 22.86C95.8102 22.7533 96.0502 22.6467 96.2235 22.54C96.4102 22.42 96.5368 22.34 96.6035 22.3C96.8435 22.18 97.0702 22.12 97.2835 22.12C97.5635 22.12 97.8035 22.22 98.0035 22.42C98.2035 22.62 98.3035 22.8533 98.3035 23.12C98.3035 23.48 98.1168 23.8067 97.7435 24.1C97.3702 24.4067 96.8702 24.6667 96.2435 24.88C95.6168 25.0933 94.9835 25.2 94.3435 25.2C93.2235 25.2 92.2435 24.9667 91.4035 24.5C90.5768 24.0333 89.9368 23.3933 89.4835 22.58C89.0302 21.7533 88.8035 20.8267 88.8035 19.8C88.8035 18.6533 89.0435 17.6467 89.5235 16.78C90.0035 15.9133 90.6368 15.2533 91.4235 14.8C92.2102 14.3333 93.0502 14.1 93.9435 14.1C94.8235 14.1 95.6502 14.34 96.4235 14.82C97.2102 15.3 97.8368 15.9467 98.3035 16.76C98.7702 17.5733 99.0035 18.4533 99.0035 19.4ZM93.9435 16.3C92.3968 16.3 91.4835 17.0267 91.2035 18.48H96.4435V18.34C96.3902 17.78 96.1168 17.3 95.6235 16.9C95.1302 16.5 94.5702 16.3 93.9435 16.3ZM107.725 14.1C109.085 14.1 110.025 14.5067 110.545 15.32C111.065 16.12 111.325 17.2333 111.325 18.66V23.78C111.325 24.1267 111.212 24.42 110.985 24.66C110.758 24.8867 110.472 25 110.125 25C109.778 25 109.492 24.8867 109.265 24.66C109.038 24.42 108.925 24.1267 108.925 23.78V18.66C108.925 17.9267 108.772 17.3533 108.465 16.94C108.158 16.5133 107.632 16.3 106.885 16.3C106.112 16.3 105.505 16.5267 105.065 16.98C104.625 17.42 104.405 17.98 104.405 18.66V23.78C104.405 24.1267 104.292 24.42 104.065 24.66C103.838 24.8867 103.552 25 103.205 25C102.858 25 102.572 24.8867 102.345 24.66C102.118 24.42 102.005 24.1267 102.005 23.78V15.52C102.005 15.1733 102.118 14.8867 102.345 14.66C102.572 14.42 102.858 14.3 103.205 14.3C103.552 14.3 103.838 14.42 104.065 14.66C104.292 14.8867 104.405 15.1733 104.405 15.52V15.86C104.765 15.38 105.232 14.9667 105.805 14.62C106.392 14.2733 107.032 14.1 107.725 14.1ZM123.579 10.2C123.926 10.2 124.212 10.3133 124.439 10.54C124.666 10.7667 124.779 11.06 124.779 11.42V23.78C124.779 24.1267 124.666 24.42 124.439 24.66C124.212 24.8867 123.926 25 123.579 25C123.232 25 122.946 24.8867 122.719 24.66C122.506 24.4333 122.392 24.1467 122.379 23.8C122.046 24.1867 121.592 24.52 121.019 24.8C120.459 25.0667 119.866 25.2 119.239 25.2C118.319 25.2 117.486 24.9667 116.739 24.5C115.992 24.02 115.399 23.36 114.959 22.52C114.532 21.68 114.319 20.7267 114.319 19.66C114.319 18.5933 114.532 17.64 114.959 16.8C115.386 15.9467 115.966 15.2867 116.699 14.82C117.446 14.34 118.266 14.1 119.159 14.1C119.799 14.1 120.399 14.22 120.959 14.46C121.519 14.6867 121.992 14.98 122.379 15.34V11.42C122.379 11.0733 122.492 10.7867 122.719 10.56C122.946 10.32 123.232 10.2 123.579 10.2ZM119.539 23C120.406 23 121.112 22.6867 121.659 22.06C122.206 21.42 122.479 20.62 122.479 19.66C122.479 18.7 122.206 17.9 121.659 17.26C121.112 16.62 120.406 16.3 119.539 16.3C118.686 16.3 117.986 16.62 117.439 17.26C116.892 17.9 116.619 18.7 116.619 19.66C116.619 20.62 116.886 21.42 117.419 22.06C117.966 22.6867 118.672 23 119.539 23ZM143.646 14.1C143.992 14.1 144.279 14.2133 144.506 14.44C144.732 14.6667 144.846 14.96 144.846 15.32V23.78C144.846 24.1267 144.732 24.42 144.506 24.66C144.279 24.8867 143.992 25 143.646 25C143.299 25 143.012 24.8867 142.786 24.66C142.572 24.4333 142.459 24.1467 142.446 23.8C142.112 24.1867 141.659 24.52 141.086 24.8C140.526 25.0667 139.932 25.2 139.306 25.2C138.386 25.2 137.552 24.9667 136.806 24.5C136.059 24.02 135.466 23.36 135.026 22.52C134.599 21.68 134.386 20.7267 134.386 19.66C134.386 18.5933 134.599 17.64 135.026 16.8C135.452 15.9467 136.032 15.2867 136.766 14.82C137.512 14.34 138.332 14.1 139.226 14.1C139.866 14.1 140.466 14.22 141.026 14.46C141.586 14.6867 142.059 14.98 142.446 15.34V15.32C142.446 14.9733 142.559 14.6867 142.786 14.46C143.012 14.22 143.299 14.1 143.646 14.1ZM139.606 23C140.472 23 141.179 22.6867 141.726 22.06C142.272 21.42 142.546 20.62 142.546 19.66C142.546 18.7 142.272 17.9 141.726 17.26C141.179 16.62 140.472 16.3 139.606 16.3C138.752 16.3 138.052 16.62 137.506 17.26C136.959 17.9 136.686 18.7 136.686 19.66C136.686 20.62 136.952 21.42 137.486 22.06C138.032 22.6867 138.739 23 139.606 23ZM153.986 14.1C154.906 14.1 155.74 14.34 156.486 14.82C157.233 15.2867 157.82 15.94 158.246 16.78C158.686 17.62 158.906 18.5733 158.906 19.64C158.906 20.7067 158.693 21.6667 158.266 22.52C157.84 23.36 157.253 24.02 156.506 24.5C155.773 24.9667 154.96 25.2 154.066 25.2C153.426 25.2 152.82 25.0733 152.246 24.82C151.686 24.5533 151.22 24.2333 150.846 23.86V23.98C150.846 24.3267 150.733 24.62 150.506 24.86C150.28 25.0867 149.993 25.2 149.646 25.2C149.3 25.2 149.013 25.0867 148.786 24.86C148.56 24.6333 148.446 24.34 148.446 23.98V11.42C148.446 11.0733 148.56 10.7867 148.786 10.56C149.013 10.32 149.3 10.2 149.646 10.2C149.993 10.2 150.28 10.32 150.506 10.56C150.733 10.7867 150.846 11.0733 150.846 11.42V15.6C151.166 15.2 151.613 14.8533 152.186 14.56C152.76 14.2533 153.36 14.1 153.986 14.1ZM153.686 23C154.54 23 155.24 22.68 155.786 22.04C156.333 21.4 156.606 20.6 156.606 19.64C156.606 18.68 156.333 17.8867 155.786 17.26C155.253 16.62 154.553 16.3 153.686 16.3C152.82 16.3 152.113 16.62 151.566 17.26C151.02 17.8867 150.746 18.68 150.746 19.64C150.746 20.6 151.02 21.4 151.566 22.04C152.113 22.68 152.82 23 153.686 23ZM172.187 19.66C172.187 20.7267 171.947 21.6867 171.467 22.54C170.987 23.38 170.327 24.0333 169.487 24.5C168.661 24.9667 167.747 25.2 166.747 25.2C165.734 25.2 164.814 24.9667 163.987 24.5C163.161 24.0333 162.507 23.38 162.027 22.54C161.547 21.6867 161.307 20.7267 161.307 19.66C161.307 18.5933 161.547 17.64 162.027 16.8C162.507 15.9467 163.161 15.2867 163.987 14.82C164.814 14.34 165.734 14.1 166.747 14.1C167.747 14.1 168.661 14.34 169.487 14.82C170.327 15.2867 170.987 15.9467 171.467 16.8C171.947 17.64 172.187 18.5933 172.187 19.66ZM169.787 19.66C169.787 19.0067 169.647 18.4267 169.367 17.92C169.101 17.4 168.734 17 168.267 16.72C167.814 16.44 167.307 16.3 166.747 16.3C166.187 16.3 165.674 16.44 165.207 16.72C164.754 17 164.387 17.4 164.107 17.92C163.841 18.4267 163.707 19.0067 163.707 19.66C163.707 20.3133 163.841 20.8933 164.107 21.4C164.387 21.9067 164.754 22.3 165.207 22.58C165.674 22.86 166.187 23 166.747 23C167.307 23 167.814 22.86 168.267 22.58C168.734 22.3 169.101 21.9067 169.367 21.4C169.647 20.8933 169.787 20.3133 169.787 19.66ZM183.133 14.3C183.479 14.3 183.766 14.42 183.993 14.66C184.219 14.8867 184.333 15.1733 184.333 15.52V20.6C184.333 22.04 183.933 23.1667 183.133 23.98C182.346 24.7933 181.219 25.2 179.753 25.2C178.286 25.2 177.159 24.7933 176.373 23.98C175.586 23.1667 175.193 22.04 175.193 20.6V15.52C175.193 15.1733 175.306 14.8867 175.533 14.66C175.759 14.42 176.046 14.3 176.393 14.3C176.739 14.3 177.026 14.42 177.253 14.66C177.479 14.8867 177.593 15.1733 177.593 15.52V20.6C177.593 21.4133 177.773 22.02 178.133 22.42C178.493 22.8067 179.033 23 179.753 23C180.486 23 181.033 22.8067 181.393 22.42C181.753 22.02 181.933 21.4133 181.933 20.6V15.52C181.933 15.1733 182.046 14.8867 182.273 14.66C182.499 14.42 182.786 14.3 183.133 14.3ZM193.091 22.74C193.278 22.74 193.444 22.8333 193.591 23.02C193.751 23.1933 193.831 23.4267 193.831 23.72C193.831 24.08 193.631 24.3867 193.231 24.64C192.844 24.88 192.404 25 191.911 25C191.084 25 190.384 24.8267 189.811 24.48C189.251 24.12 188.971 23.3667 188.971 22.22V16.7H188.051C187.731 16.7 187.464 16.5933 187.251 16.38C187.038 16.1667 186.931 15.9 186.931 15.58C186.931 15.2733 187.038 15.02 187.251 14.82C187.464 14.6067 187.731 14.5 188.051 14.5H188.971V13.22C188.971 12.8733 189.084 12.5867 189.311 12.36C189.551 12.12 189.844 12 190.191 12C190.524 12 190.804 12.12 191.031 12.36C191.258 12.5867 191.371 12.8733 191.371 13.22V14.5H192.791C193.111 14.5 193.378 14.6067 193.591 14.82C193.804 15.0333 193.911 15.3 193.911 15.62C193.911 15.9267 193.804 16.1867 193.591 16.4C193.378 16.6 193.111 16.7 192.791 16.7H191.371V22.12C191.371 22.4 191.444 22.6067 191.591 22.74C191.738 22.86 191.938 22.92 192.191 22.92C192.298 22.92 192.444 22.8933 192.631 22.84C192.791 22.7733 192.944 22.74 193.091 22.74ZM211.66 14.3C212.007 14.3 212.293 14.42 212.52 14.66C212.747 14.8867 212.86 15.1733 212.86 15.52V20.6C212.86 22.04 212.46 23.1667 211.66 23.98C210.873 24.7933 209.747 25.2 208.28 25.2C206.813 25.2 205.687 24.7933 204.9 23.98C204.113 23.1667 203.72 22.04 203.72 20.6V15.52C203.72 15.1733 203.833 14.8867 204.06 14.66C204.287 14.42 204.573 14.3 204.92 14.3C205.267 14.3 205.553 14.42 205.78 14.66C206.007 14.8867 206.12 15.1733 206.12 15.52V20.6C206.12 21.4133 206.3 22.02 206.66 22.42C207.02 22.8067 207.56 23 208.28 23C209.013 23 209.56 22.8067 209.92 22.42C210.28 22.02 210.46 21.4133 210.46 20.6V15.52C210.46 15.1733 210.573 14.8867 210.8 14.66C211.027 14.42 211.313 14.3 211.66 14.3ZM215.838 23.34C215.718 23.18 215.658 22.98 215.658 22.74C215.658 22.3933 215.832 22.1 216.178 21.86C216.365 21.74 216.558 21.68 216.758 21.68C217.038 21.68 217.305 21.8067 217.558 22.06C217.958 22.4733 218.372 22.78 218.798 22.98C219.238 23.18 219.765 23.28 220.378 23.28C221.418 23.24 221.938 22.8467 221.938 22.1C221.938 21.7133 221.758 21.42 221.398 21.22C221.052 21.02 220.505 20.82 219.758 20.62C218.985 20.4067 218.352 20.1933 217.858 19.98C217.378 19.7667 216.958 19.4467 216.598 19.02C216.252 18.58 216.078 17.9933 216.078 17.26C216.078 16.62 216.258 16.0667 216.618 15.6C216.992 15.12 217.472 14.7533 218.058 14.5C218.658 14.2333 219.292 14.1 219.958 14.1C220.638 14.1 221.318 14.2267 221.998 14.48C222.678 14.7333 223.212 15.1067 223.598 15.6C223.772 15.8133 223.858 16.0533 223.858 16.32C223.858 16.6267 223.732 16.88 223.478 17.08C223.292 17.2267 223.078 17.3 222.838 17.3C222.545 17.3 222.305 17.2067 222.118 17.02C221.878 16.7267 221.565 16.4933 221.178 16.32C220.805 16.1467 220.378 16.06 219.898 16.06C218.885 16.06 218.378 16.4267 218.378 17.16C218.378 17.4533 218.472 17.6933 218.658 17.88C218.845 18.0533 219.078 18.1933 219.358 18.3C219.652 18.3933 220.058 18.5133 220.578 18.66C221.298 18.86 221.898 19.0667 222.378 19.28C222.858 19.4933 223.265 19.82 223.598 20.26C223.932 20.7 224.098 21.28 224.098 22C224.098 22.6533 223.905 23.2267 223.518 23.72C223.132 24.2 222.632 24.5667 222.018 24.82C221.418 25.0733 220.798 25.2 220.158 25.2C219.278 25.2 218.458 25.0533 217.698 24.76C216.938 24.4667 216.318 23.9933 215.838 23.34Z" fill="white"/>
<path d="M263.28 17.184C263.28 17.7968 263.099 18.3957 262.758 18.9052C262.418 19.4147 261.934 19.8118 261.368 20.0462C260.802 20.2807 260.179 20.342 259.578 20.2224C258.977 20.1028 258.425 19.8076 257.992 19.3743C257.558 18.941 257.263 18.3889 257.144 17.7879C257.025 17.1869 257.086 16.564 257.321 15.998C257.555 15.4319 257.952 14.9481 258.462 14.6078C258.972 14.2675 259.571 14.0859 260.183 14.0861C260.59 14.0861 260.993 14.1662 261.369 14.3219C261.745 14.4776 262.086 14.7058 262.374 14.9935C262.661 15.2812 262.889 15.6227 263.045 15.9985C263.201 16.3744 263.281 16.7772 263.28 17.184Z" fill="black"/>
<path d="M267.427 11.7027C267.272 11.302 267.036 10.9382 266.732 10.6345C266.428 10.3308 266.064 10.094 265.664 9.93918C265.11 9.73409 264.526 9.62581 263.936 9.6191C262.959 9.57476 262.658 9.565 260.179 9.565C257.699 9.565 257.403 9.57476 256.422 9.6191C255.832 9.62587 255.247 9.73415 254.694 9.93918C254.293 10.0939 253.929 10.3307 253.625 10.6344C253.321 10.9381 253.084 11.302 252.929 11.7027C252.724 12.2561 252.616 12.8407 252.609 13.4309C252.565 14.4076 252.555 14.7082 252.555 17.1878C252.555 19.6673 252.565 19.9626 252.609 20.9447C252.616 21.5348 252.724 22.1194 252.929 22.6728C253.084 23.0735 253.321 23.4373 253.625 23.741C253.928 24.0447 254.292 24.2816 254.693 24.4363C255.246 24.6416 255.831 24.7498 256.421 24.7564C257.398 24.8015 257.695 24.8105 260.178 24.8105C262.661 24.8105 262.954 24.8015 263.935 24.7564C264.525 24.7498 265.11 24.6416 265.663 24.4363C266.064 24.2816 266.428 24.0447 266.731 23.741C267.035 23.4373 267.272 23.0735 267.427 22.6728C267.632 22.1194 267.74 21.5348 267.747 20.9447C267.792 19.9679 267.801 19.6673 267.801 17.1878C267.801 14.7082 267.792 14.4122 267.747 13.4309C267.74 12.8407 267.632 12.2561 267.427 11.7027ZM260.183 21.9553C259.239 21.9553 258.317 21.6754 257.532 21.1511C256.747 20.6267 256.136 19.8814 255.774 19.0094C255.413 18.1375 255.319 17.178 255.503 16.2523C255.687 15.3266 256.141 14.4763 256.809 13.8089C257.476 13.1415 258.327 12.687 259.252 12.5029C260.178 12.3188 261.137 12.4133 262.009 12.7745C262.881 13.1357 263.627 13.7473 264.151 14.5321C264.675 15.3168 264.955 16.2394 264.955 17.1833C264.955 18.4489 264.452 19.6627 263.558 20.5576C262.663 21.4525 261.449 21.9553 260.183 21.9553ZM265.142 13.3384C264.922 13.3384 264.706 13.273 264.523 13.1505C264.339 13.028 264.197 12.8538 264.112 12.6501C264.028 12.4463 264.006 12.2221 264.049 12.0058C264.092 11.7895 264.198 11.5909 264.354 11.4349C264.51 11.279 264.708 11.1728 264.925 11.1298C265.141 11.0867 265.365 11.1088 265.569 11.1932C265.773 11.2776 265.947 11.4205 266.069 11.6039C266.192 11.7873 266.257 12.0029 266.257 12.2234C266.257 12.5189 266.14 12.8022 265.931 13.0113C265.723 13.2204 265.439 13.338 265.144 13.3384H265.142Z" fill="black"/>
<path opacity="0.8" d="M260.183 1C256.983 1 253.854 1.94913 251.192 3.72737C248.531 5.50561 246.457 8.03309 245.232 10.9902C244.007 13.9473 243.687 17.2012 244.311 20.3405C244.935 23.4797 246.477 26.3633 248.74 28.6265C251.003 30.8898 253.887 32.4311 257.026 33.0556C260.165 33.68 263.419 33.3595 266.376 32.1346C269.333 30.9098 271.861 28.8355 273.639 26.1742C275.417 23.5129 276.367 20.384 276.367 17.1833C276.366 12.8913 274.661 8.77527 271.626 5.74041C268.591 2.70554 264.475 1.0004 260.183 1V1ZM269.42 21.0146C269.404 21.785 269.258 22.5471 268.988 23.2687C268.749 23.886 268.384 24.4466 267.916 24.9146C267.448 25.3826 266.888 25.7477 266.27 25.9864C265.549 26.2567 264.786 26.4028 264.016 26.4185C263.025 26.4636 262.709 26.4748 260.184 26.4748C257.659 26.4748 257.344 26.4643 256.352 26.4185C255.582 26.4028 254.819 26.2567 254.098 25.9864C253.48 25.748 252.92 25.3833 252.451 24.9155C251.983 24.4478 251.618 23.8874 251.379 23.2702C251.108 22.5486 250.962 21.7865 250.947 21.0161C250.901 20.025 250.89 19.7079 250.89 17.184C250.89 14.6601 250.901 14.3438 250.947 13.352C250.962 12.5816 251.108 11.8194 251.378 11.0978C251.617 10.4803 251.982 9.91939 252.45 9.45114C252.918 8.98288 253.479 8.61756 254.096 8.37857C254.818 8.10832 255.58 7.96224 256.35 7.94652C257.342 7.90144 257.658 7.89017 260.183 7.89017C262.707 7.89017 263.023 7.90069 264.015 7.94652C264.785 7.96203 265.547 8.10785 266.269 8.37782C266.886 8.61665 267.447 8.98175 267.915 9.44974C268.383 9.91774 268.748 10.4783 268.986 11.0956C269.257 11.8171 269.403 12.5793 269.418 13.3497C269.464 14.3408 269.474 14.6571 269.474 17.1818C269.474 19.7064 269.466 20.0235 269.42 21.0146Z" fill="black"/>
<path opacity="0.8" d="M303 1C299.836 1 296.742 1.93838 294.111 3.69649C291.48 5.45459 289.429 7.95344 288.218 10.8771C287.007 13.8007 286.69 17.0177 287.307 20.1214C287.925 23.2251 289.449 26.0761 291.686 28.3137C293.924 30.5513 296.775 32.0752 299.879 32.6926C302.982 33.3099 306.199 32.9931 309.123 31.7821C312.047 30.5711 314.545 28.5203 316.304 25.8891C318.062 23.2579 319 20.1645 319 17C319 12.7567 317.314 8.68722 314.313 5.68673C311.313 2.68623 307.243 1.00039 303 1V1ZM310.305 13.4751C310.312 13.6326 310.316 13.7908 310.316 13.9498C310.325 15.3247 310.062 16.6878 309.54 17.96C309.019 19.2322 308.249 20.388 307.277 21.3603C306.305 22.3327 305.149 23.1021 303.877 23.6241C302.605 24.146 301.242 24.4099 299.867 24.4005C297.871 24.4024 295.917 23.8296 294.238 22.7506C294.529 22.7846 294.821 22.8014 295.114 22.8011C296.767 22.8038 298.374 22.2501 299.675 21.2292C298.909 21.2148 298.166 20.9614 297.551 20.5045C296.936 20.0475 296.479 19.4097 296.244 18.6804C296.795 18.7866 297.362 18.765 297.903 18.6172C297.072 18.4494 296.325 17.9992 295.788 17.343C295.251 16.6869 294.957 15.8652 294.957 15.0173C294.957 15.0009 294.957 14.9861 294.957 14.9705C295.467 15.2543 296.037 15.4118 296.62 15.4296C295.843 14.9103 295.292 14.1142 295.081 13.2033C294.869 12.2924 295.013 11.3352 295.483 10.5266C296.405 11.6611 297.556 12.589 298.86 13.2501C300.164 13.9111 301.592 14.2905 303.053 14.3635C302.869 13.576 302.95 12.7499 303.283 12.0131C303.617 11.2764 304.184 10.6703 304.897 10.2887C305.61 9.90715 306.429 9.77148 307.227 9.90273C308.025 10.034 308.757 10.4248 309.311 11.0147C310.133 10.8524 310.922 10.5509 311.643 10.1232C311.368 10.9722 310.795 11.6928 310.029 12.1513C310.757 12.065 311.468 11.8699 312.138 11.5726C311.645 12.3107 311.025 12.9549 310.305 13.4751Z" fill="black"/>
<g opacity="0.8">
<path opacity="0.8" d="M346.155 34.0608C355.077 34.0608 362.309 26.6599 362.309 17.5304C362.309 8.40091 355.077 1 346.155 1C337.233 1 330 8.40091 330 17.5304C330 26.6599 337.233 34.0608 346.155 34.0608Z" fill="black"/>
<path opacity="0.8" d="M346.155 33.6851C354.869 33.6851 361.934 26.4524 361.934 17.5304C361.934 8.60844 354.869 1.37573 346.155 1.37573C337.44 1.37573 330.376 8.60844 330.376 17.5304C330.376 26.4524 337.44 33.6851 346.155 33.6851Z" stroke="black"/>
</g>
<path d="M347.189 14.8457V12.8485C347.189 12.5837 347.295 12.3297 347.482 12.1424C347.669 11.9551 347.923 11.8499 348.188 11.8499H349.184V9.35382H347.187C346.393 9.35382 345.631 9.66944 345.069 10.2313C344.507 10.7931 344.191 11.5551 344.191 12.3496V14.8457H342.197V17.3418H344.194V25.3304H347.189V17.3418H349.184L350.183 14.8457H347.189Z" fill="white"/>
</svg>
